<svg xmlns="http://www.w3.org/2000/svg" width="74.741" height="28.075" viewBox="0 0 74.741 28.075">
  <path id="Union_1" data-name="Union 1" d="M-595.72-149.693c-.451-.7-2.168-4.221-3.106-6.446-1-2.052-1.934-4.279-2.814-6.506-.232-.588-.469-1.113-.643-1.7a12.963,12.963,0,0,1-.777-3.181v-.034a1.119,1.119,0,0,1,.014-.182,2.066,2.066,0,0,1,1.466-1.641,2.257,2.257,0,0,1,2.168.41,7.239,7.239,0,0,1,.879,1.349c.294.472,1.583,3.692,1.993,4.747.47,1.167.937,2.281,1.408,3.394a14.179,14.179,0,0,0,.7,1.525,18.035,18.035,0,0,0,.586-2.052c.176-.762.352-1.464.586-2.227.409-1.464.82-2.93,1.289-4.337.471-1.465.939-2.93,1.407-4.336a15.155,15.155,0,0,1,1.759-3.811,7.556,7.556,0,0,1,1.466-1.582,3.539,3.539,0,0,1,.88-.527l-.007.009a3.59,3.59,0,0,1,1.173-.059,1.923,1.923,0,0,1,1.231.528,1.145,1.145,0,0,1,.233,1.112c-.176.581-.41,1.108-.587,1.634-.232.588-.41,1.172-.643,1.7-.468,1.173-.879,2.285-1.348,3.457-.41,1.174-.821,2.287-1.232,3.459-.761,2.286-1.287,4.631-1.874,6.974-.293,1.176-.586,2.348-.937,3.52-.293,1.108-.585,2.281-1,3.395-.353.877-1.02,2.062-1.875,2.227a2.586,2.586,0,0,1-.487.045A2.312,2.312,0,0,1-595.72-149.693Zm64.063-.7a16.153,16.153,0,0,1-2.284-3.459c-.364-.795-1.174-3.222-1.524-3.222-.126-.117-1.006,1.522-1.571,2.345a13.151,13.151,0,0,1-1.817,2.227,5.741,5.741,0,0,1-2.345,1.289,4.083,4.083,0,0,1-2.641,0,2.648,2.648,0,0,1-1.112-.82,2.151,2.151,0,0,1-.411-.587,3.561,3.561,0,0,0-.35-.643,5.921,5.921,0,0,0-.471.643,5.422,5.422,0,0,1-.527.587,4.354,4.354,0,0,1-1.231.762,14.437,14.437,0,0,1-3.459.936,16.033,16.033,0,0,1-3.75,0c-.643-.058-1.23-.176-1.874-.292a2.537,2.537,0,0,1-1.291-.527,2.543,2.543,0,0,1-.644-2.461,2.606,2.606,0,0,1,.7-1.232.893.893,0,0,1,.645-.352,2.312,2.312,0,0,1,.819.292,10.562,10.562,0,0,0,3.521,1c.586.058,2.641-.291,2.4-.644s-3.169-1.113-4.4-1.407a13.7,13.7,0,0,1-3.281-1.173,4.722,4.722,0,0,1-1.23-.88,2.413,2.413,0,0,1-.528-1.347,4.131,4.131,0,0,1,1.172-2.931,7.752,7.752,0,0,1,2.515-1.641,8.467,8.467,0,0,1,3.394-.761,3.244,3.244,0,0,1,1.7.351c.47.3,1.231,2.23.88,2.64a1.367,1.367,0,0,1-.586.293c-.3.058-2.168.469-2.813.587l-.88.175c-.293.059-1.055.175-1.055.41s1.057.646,1.292.761a8.089,8.089,0,0,0,1.694.528c1.173.292,2.4.644,3.575,1a6.193,6.193,0,0,1,2.755,1.406c.175.177.292.352.468.528.118.175.235.41.35.587a15.177,15.177,0,0,1,.7-2.111,9.826,9.826,0,0,1,1.183-1.993,13.042,13.042,0,0,1,2.989-3.223,23.064,23.064,0,0,1,4.042-2.284l1.055-.528a2.99,2.99,0,0,1,1-.411h-.007a3.088,3.088,0,0,1,.6-.064,1.5,1.5,0,0,1,1.1.417,3.98,3.98,0,0,1,.643,1.816c.118.821.293,1.583.411,2.4a24.351,24.351,0,0,0,1.171,4.63,16.7,16.7,0,0,0,.937,2.11c.49.883.821,1.23,1.232,1.875a2.491,2.491,0,0,1,.117,2.7,1.213,1.213,0,0,1-1.031.465A3.34,3.34,0,0,1-531.657-150.4Zm-8.5-8.323c-1.289,1.7-1.758,3.576-1.524,3.752h0a.123.123,0,0,0,.054.014c.4,0,1.921-1.54,2.756-2.711.938-1.23,2.284-3.457,1.993-3.808a.166.166,0,0,0-.135-.054C-537.52-161.527-539-160.241-540.158-158.719Zm-21.565,8.5a2.52,2.52,0,0,1-1.524-.762,5.457,5.457,0,0,1-.7-1.7,32.617,32.617,0,0,1-.761-4.042c-.176-1.407-.53-4.924-.88-4.982-.3-.059-1.467,2.462-1.76,2.988-.529,1.055-1.055,2.111-1.524,3.224-.469,1.055-.821,2.169-1.349,3.164-.118.234-.235.469-.409.76a.935.935,0,0,1-.528.529,3.377,3.377,0,0,1-.761.058h-.936a.89.89,0,0,1-.936-.7,2.826,2.826,0,0,1,.116-1.7c0-.117.058-.294.058-.41,0-.059.118-.293-.058-.293-.059,0-.292.235-.352.293-.115.116-.233.176-.35.293-.468.351-.879.7-1.348,1.054a13.967,13.967,0,0,1-2.93,1.524,7.117,7.117,0,0,1-3.339.41,5.865,5.865,0,0,1-4.631-3.164,4.877,4.877,0,0,0-.82-1.406,2.691,2.691,0,0,1-.645-1.29,1.5,1.5,0,0,1,.117-.7.823.823,0,0,0,.119-.351v-.41a7.806,7.806,0,0,1,.175-1.642,9.535,9.535,0,0,1,1.172-2.753,7.213,7.213,0,0,1,1.76-1.993,5.506,5.506,0,0,1,5.684-1.113,4,4,0,0,1,1.876,2.169,5.138,5.138,0,0,1,.234,2.988,4.946,4.946,0,0,1-1.522,2.641,9.412,9.412,0,0,1-2.641,1.583c-.469.175-1.32.485-1.32.485a2.963,2.963,0,0,0,1.5.861,4.634,4.634,0,0,0,1.933,0,6.219,6.219,0,0,0,1.76-.88,12.326,12.326,0,0,0,1.7-1.348c.527-.529,2.11-1.993,2.227-2.11a1.169,1.169,0,0,0,.117-.761c0-.762,0-1.524.059-2.287a1.554,1.554,0,0,1,.469-1.231c.409-.409,1.744-.261,2.169-.117a2.244,2.244,0,0,1,1.053.763,15.657,15.657,0,0,0,1.174-1.582c.409-.528.821-1.113,1.232-1.641a3.364,3.364,0,0,1,1.288-1.113h0a2.314,2.314,0,0,1,1.016-.235,2.057,2.057,0,0,1,.5.059,1.446,1.446,0,0,1,1.113.7c.119.292,2.578,11.429,2.7,12.132s.294,1.347.409,1.992c.117.587.294,1.23-.115,1.7a1.508,1.508,0,0,1-1.143.379A3.553,3.553,0,0,1-561.723-150.222Zm-21.333-11.019v0a3.937,3.937,0,0,0,0,2.461,4.912,4.912,0,0,0,1.113-.411,2.042,2.042,0,0,0,.761-.469,2.173,2.173,0,0,0,.587-1.524,1.081,1.081,0,0,0-1.055-1.173A1.638,1.638,0,0,0-583.056-161.24Z" transform="translate(603.06 176.902)" fill="#fff"/>
</svg>
